<svg viewBox="0 0 32.3308 30" xmlns="http://www.w3.org/2000/svg" xmlns:xlink="http://www.w3.org/1999/xlink" width="32.330811" height="30.000000" fill="none" customFrame="#000000">
	<path id="Vector" d="M32.3306 3.52941C31.1406 4.14706 29.8579 4.55294 28.5288 4.74706C29.8888 3.81176 30.9397 2.32941 31.4342 0.547059C30.1515 1.42941 28.7297 2.04706 27.2306 2.4C26.0097 0.882353 24.2942 0 22.347 0C18.7152 0 15.7479 3.38824 15.7479 7.57059C15.7479 8.17059 15.8097 8.75294 15.9179 9.3C10.4161 8.98235 5.51703 5.96471 2.25612 1.39412C1.6843 2.50588 1.35976 3.81176 1.35976 5.18824C1.35976 7.81765 2.51885 10.1471 4.31158 11.4706C3.2143 11.4706 2.1943 11.1176 1.29794 10.5882L1.29794 10.6412C1.29794 14.3118 3.58521 17.3824 6.6143 18.0706C5.6418 18.3745 4.62081 18.4168 3.63158 18.1941C4.05134 19.6985 4.87341 21.0148 5.98224 21.9581C7.09108 22.9015 8.43091 23.4242 9.81339 23.4529C7.46991 25.5713 4.56503 26.7164 1.57612 26.7C1.05067 26.7 0.52521 26.6647 -0.000244141 26.5941C2.93612 28.7471 6.42885 30 10.1688 30C22.347 30 29.0388 18.4588 29.0388 8.45294C29.0388 8.11765 29.0388 7.8 29.0233 7.46471C30.3215 6.40588 31.4342 5.06471 32.3306 3.52941Z" fill="rgb(255,255,255)" fill-rule="nonzero" />
</svg>
